<svg xmlns="http://www.w3.org/2000/svg" xmlns:xlink="http://www.w3.org/1999/xlink" width="500" zoomAndPan="magnify" viewBox="0 0 375 374.999991" height="500" preserveAspectRatio="xMidYMid meet" version="1.0"><defs><g/><clipPath id="9839e8ecf7"><path d="M 3 0.160156 L 231.160156 0.160156 L 231.160156 115 L 3 115 Z M 3 0.160156 " clip-rule="nonzero"/></clipPath><clipPath id="0f1cabf03f"><rect x="0" width="232" y="0" height="118"/></clipPath></defs><rect x="-37.5" width="450" fill="#ffffff" y="-37.499999" height="449.999989" fill-opacity="1"/><rect x="-37.5" width="450" fill="#ffffff" y="-37.499999" height="449.999989" fill-opacity="1"/><g transform="matrix(1, 0, 0, 1, 71, 104)"><g clip-path="url(#0f1cabf03f)"><g clip-path="url(#9839e8ecf7)"><path fill="#cc0000" d="M 61.023438 0.410156 C 63.078125 0.394531 65.128906 0.492188 67.175781 0.703125 C 69.21875 0.914062 71.25 1.234375 73.257812 1.664062 C 75.269531 2.09375 77.25 2.632812 79.203125 3.277344 C 81.15625 3.925781 83.066406 4.675781 84.9375 5.527344 C 86.804688 6.382812 88.625 7.335938 90.390625 8.386719 C 92.15625 9.441406 93.863281 10.585938 95.503906 11.824219 C 97.144531 13.058594 98.714844 14.382812 100.214844 15.792969 C 101.710938 17.199219 103.128906 18.6875 104.464844 20.25 L 112.875 29.9375 L 94.101562 51.625 L 83.027344 38.847656 C 81.667969 37.261719 80.15625 35.839844 78.488281 34.582031 C 76.816406 33.324219 75.035156 32.265625 73.132812 31.398438 C 71.234375 30.53125 69.261719 29.878906 67.21875 29.441406 C 65.175781 29.003906 63.113281 28.789062 61.023438 28.800781 C 60.089844 28.789062 59.15625 28.824219 58.226562 28.902344 C 57.296875 28.984375 56.375 29.109375 55.457031 29.277344 C 54.539062 29.449219 53.632812 29.667969 52.734375 29.925781 C 51.839844 30.1875 50.957031 30.492188 50.09375 30.839844 C 49.226562 31.191406 48.378906 31.582031 47.554688 32.011719 C 46.726562 32.445312 45.921875 32.917969 45.140625 33.429688 C 44.359375 33.941406 43.609375 34.488281 42.882812 35.078125 C 42.15625 35.664062 41.460938 36.285156 40.796875 36.941406 C 40.132812 37.59375 39.5 38.28125 38.902344 39 C 38.308594 39.71875 37.75 40.464844 37.226562 41.238281 C 36.703125 42.011719 36.21875 42.808594 35.777344 43.628906 C 35.332031 44.449219 34.929688 45.292969 34.570312 46.152344 C 34.210938 47.015625 33.894531 47.890625 33.621094 48.785156 C 33.347656 49.675781 33.121094 50.578125 32.9375 51.496094 C 32.753906 52.410156 32.613281 53.332031 32.523438 54.261719 C 32.429688 55.191406 32.382812 56.121094 32.382812 57.054688 C 32.382812 57.988281 32.429688 58.917969 32.523438 59.847656 C 32.613281 60.777344 32.753906 61.699219 32.9375 62.613281 C 33.121094 63.527344 33.347656 64.433594 33.621094 65.324219 C 33.894531 66.21875 34.210938 67.09375 34.570312 67.957031 C 34.929688 68.816406 35.332031 69.65625 35.777344 70.480469 C 36.21875 71.300781 36.703125 72.097656 37.226562 72.871094 C 37.75 73.644531 38.308594 74.390625 38.902344 75.109375 C 39.5 75.828125 40.132812 76.511719 40.796875 77.167969 C 41.460938 77.824219 42.15625 78.445312 42.882812 79.03125 C 43.609375 79.617188 44.359375 80.167969 45.140625 80.679688 C 45.921875 81.191406 46.726562 81.664062 47.554688 82.097656 C 48.378906 82.527344 49.226562 82.917969 50.09375 83.265625 C 50.957031 83.613281 51.839844 83.917969 52.734375 84.179688 C 53.632812 84.441406 54.539062 84.65625 55.457031 84.828125 C 56.375 85 57.296875 85.125 58.226562 85.207031 C 59.15625 85.285156 60.089844 85.316406 61.023438 85.304688 C 63.105469 85.320312 65.164062 85.109375 67.199219 84.671875 C 69.234375 84.238281 71.199219 83.585938 73.09375 82.722656 C 74.988281 81.859375 76.769531 80.800781 78.429688 79.546875 C 80.09375 78.296875 81.601562 76.878906 82.957031 75.296875 C 124.078125 27.816406 104.539062 50.4375 130.65625 20.214844 C 131.996094 18.652344 133.414062 17.171875 134.914062 15.765625 C 136.414062 14.359375 137.984375 13.039062 139.625 11.800781 C 141.269531 10.566406 142.972656 9.425781 144.738281 8.375 C 146.507812 7.324219 148.324219 6.371094 150.195312 5.519531 C 152.066406 4.667969 153.976562 3.917969 155.925781 3.273438 C 157.878906 2.628906 159.859375 2.09375 161.867188 1.664062 C 163.878906 1.234375 165.90625 0.914062 167.949219 0.703125 C 169.996094 0.492188 172.042969 0.394531 174.101562 0.410156 C 175.964844 0.394531 177.824219 0.476562 179.679688 0.644531 C 181.535156 0.816406 183.375 1.078125 185.207031 1.429688 C 187.035156 1.785156 188.84375 2.226562 190.628906 2.757812 C 192.414062 3.289062 194.171875 3.90625 195.894531 4.609375 C 197.621094 5.3125 199.308594 6.101562 200.953125 6.972656 C 202.601562 7.84375 204.203125 8.792969 205.757812 9.820312 C 207.308594 10.847656 208.808594 11.953125 210.253906 13.128906 C 211.699219 14.304688 213.082031 15.550781 214.402344 16.863281 C 215.726562 18.175781 216.980469 19.550781 218.167969 20.988281 C 219.351562 22.425781 220.464844 23.917969 221.503906 25.460938 C 222.542969 27.007812 223.503906 28.601562 224.386719 30.246094 C 225.269531 31.886719 226.066406 33.566406 226.785156 35.289062 C 227.5 37.007812 228.128906 38.757812 228.671875 40.542969 C 229.214844 42.324219 229.667969 44.128906 230.035156 45.957031 C 230.398438 47.78125 230.671875 49.625 230.855469 51.476562 C 231.039062 53.332031 231.132812 55.191406 231.132812 57.054688 C 231.132812 58.917969 231.039062 60.777344 230.855469 62.628906 C 230.671875 64.484375 230.398438 66.324219 230.035156 68.152344 C 229.667969 69.980469 229.214844 71.785156 228.671875 73.566406 C 228.128906 75.347656 227.5 77.101562 226.785156 78.820312 C 226.066406 80.542969 225.269531 82.222656 224.386719 83.863281 C 223.503906 85.503906 222.542969 87.097656 221.503906 88.644531 C 220.464844 90.191406 219.351562 91.683594 218.167969 93.121094 C 216.980469 94.558594 215.726562 95.933594 214.402344 97.246094 C 213.082031 98.558594 211.699219 99.804688 210.253906 100.980469 C 208.808594 102.15625 207.308594 103.257812 205.757812 104.289062 C 204.203125 105.316406 202.601562 106.265625 200.953125 107.136719 C 199.308594 108.007812 197.621094 108.792969 195.894531 109.5 C 194.171875 110.203125 192.414062 110.820312 190.628906 111.351562 C 188.84375 111.882812 187.035156 112.324219 185.207031 112.675781 C 183.375 113.03125 181.535156 113.292969 179.679688 113.460938 C 177.824219 113.632812 175.964844 113.710938 174.101562 113.699219 C 172.042969 113.710938 169.992188 113.613281 167.949219 113.40625 C 165.902344 113.195312 163.875 112.875 161.863281 112.445312 C 159.851562 112.015625 157.871094 111.476562 155.917969 110.828125 C 153.96875 110.183594 152.058594 109.433594 150.1875 108.578125 C 148.316406 107.726562 146.496094 106.773438 144.730469 105.71875 C 142.964844 104.667969 141.261719 103.523438 139.617188 102.285156 C 137.976562 101.046875 136.40625 99.726562 134.910156 98.316406 C 133.410156 96.90625 131.992188 95.421875 130.65625 93.859375 L 122.246094 84.167969 L 141.019531 62.484375 L 152.09375 75.261719 C 153.453125 76.847656 154.96875 78.269531 156.636719 79.527344 C 158.304688 80.78125 160.089844 81.84375 161.988281 82.710938 C 163.890625 83.578125 165.859375 84.230469 167.902344 84.667969 C 169.945312 85.105469 172.011719 85.320312 174.101562 85.304688 C 175.03125 85.316406 175.964844 85.285156 176.894531 85.207031 C 177.824219 85.125 178.75 85 179.667969 84.828125 C 180.582031 84.65625 181.492188 84.441406 182.386719 84.179688 C 183.28125 83.917969 184.164062 83.613281 185.03125 83.265625 C 185.894531 82.917969 186.742188 82.527344 187.570312 82.09375 C 188.398438 81.664062 189.199219 81.191406 189.980469 80.679688 C 190.761719 80.167969 191.515625 79.617188 192.242188 79.03125 C 192.96875 78.445312 193.664062 77.824219 194.328125 77.167969 C 194.992188 76.511719 195.621094 75.828125 196.21875 75.109375 C 196.816406 74.390625 197.375 73.644531 197.898438 72.871094 C 198.417969 72.097656 198.902344 71.300781 199.347656 70.480469 C 199.789062 69.65625 200.191406 68.816406 200.550781 67.957031 C 200.910156 67.09375 201.226562 66.21875 201.5 65.324219 C 201.773438 64.433594 202.003906 63.527344 202.1875 62.613281 C 202.371094 61.699219 202.507812 60.777344 202.601562 59.847656 C 202.691406 58.917969 202.738281 57.988281 202.738281 57.054688 C 202.738281 56.121094 202.691406 55.191406 202.601562 54.261719 C 202.507812 53.332031 202.371094 52.410156 202.1875 51.496094 C 202.003906 50.578125 201.773438 49.675781 201.5 48.785156 C 201.226562 47.890625 200.910156 47.015625 200.550781 46.152344 C 200.191406 45.292969 199.789062 44.449219 199.347656 43.628906 C 198.902344 42.808594 198.417969 42.011719 197.898438 41.238281 C 197.375 40.464844 196.816406 39.71875 196.21875 39 C 195.621094 38.28125 194.992188 37.59375 194.328125 36.941406 C 193.664062 36.285156 192.96875 35.664062 192.242188 35.078125 C 191.515625 34.488281 190.761719 33.941406 189.980469 33.429688 C 189.199219 32.917969 188.398438 32.445312 187.570312 32.011719 C 186.742188 31.582031 185.894531 31.191406 185.03125 30.839844 C 184.164062 30.492188 183.28125 30.1875 182.386719 29.925781 C 181.492188 29.667969 180.582031 29.449219 179.667969 29.277344 C 178.75 29.109375 177.824219 28.984375 176.894531 28.902344 C 175.964844 28.824219 175.03125 28.789062 174.101562 28.800781 C 172.019531 28.789062 169.957031 29 167.921875 29.433594 C 165.886719 29.871094 163.921875 30.519531 162.027344 31.386719 C 160.132812 32.25 158.355469 33.308594 156.691406 34.558594 C 155.027344 35.8125 153.519531 37.230469 152.164062 38.8125 C 111.046875 86.292969 130.582031 63.671875 104.464844 93.894531 C 103.699219 94.804688 102.90625 95.695312 102.085938 96.554688 C 101.261719 97.417969 100.414062 98.253906 99.542969 99.0625 C 98.667969 99.871094 97.769531 100.652344 96.847656 101.402344 C 95.925781 102.15625 94.980469 102.878906 94.011719 103.574219 C 93.042969 104.265625 92.054688 104.929688 91.042969 105.558594 C 90.035156 106.191406 89.007812 106.789062 87.960938 107.355469 C 86.910156 107.921875 85.847656 108.453125 84.765625 108.953125 C 83.6875 109.453125 82.589844 109.917969 81.480469 110.351562 C 80.371094 110.78125 79.25 111.175781 78.113281 111.539062 C 76.980469 111.898438 75.835938 112.222656 74.679688 112.511719 C 73.523438 112.800781 72.359375 113.050781 71.191406 113.269531 C 70.019531 113.484375 68.84375 113.664062 67.660156 113.804688 C 66.476562 113.945312 65.292969 114.050781 64.105469 114.117188 C 62.914062 114.183594 61.726562 114.214844 60.535156 114.207031 C 59.34375 114.199219 58.15625 114.15625 56.96875 114.074219 C 55.78125 113.992188 54.59375 113.871094 53.414062 113.714844 C 52.234375 113.558594 51.058594 113.367188 49.890625 113.136719 C 48.722656 112.90625 47.5625 112.640625 46.414062 112.335938 C 45.261719 112.035156 44.121094 111.695312 42.988281 111.320312 C 41.859375 110.945312 40.742188 110.535156 39.636719 110.09375 C 38.535156 109.648438 37.445312 109.167969 36.371094 108.65625 C 35.292969 108.140625 34.238281 107.597656 33.199219 107.015625 C 32.15625 106.4375 31.136719 105.824219 30.132812 105.183594 C 29.132812 104.539062 28.152344 103.863281 27.191406 103.160156 C 26.234375 102.453125 25.296875 101.71875 24.382812 100.957031 C 23.46875 100.191406 22.582031 99.402344 21.71875 98.582031 C 20.855469 97.761719 20.015625 96.914062 19.207031 96.042969 C 18.394531 95.171875 17.613281 94.273438 16.859375 93.351562 C 16.105469 92.433594 15.378906 91.488281 14.6875 90.519531 C 13.992188 89.554688 13.328125 88.566406 12.695312 87.558594 C 12.0625 86.550781 11.460938 85.523438 10.890625 84.476562 C 10.324219 83.429688 9.789062 82.367188 9.285156 81.289062 C 8.785156 80.207031 8.316406 79.113281 7.882812 78.003906 C 7.449219 76.894531 7.054688 75.773438 6.691406 74.640625 C 6.328125 73.503906 6 72.359375 5.710938 71.207031 C 5.417969 70.050781 5.164062 68.890625 4.945312 67.71875 C 4.730469 66.546875 4.546875 65.371094 4.40625 64.191406 C 4.261719 63.007812 4.152344 61.824219 4.085938 60.632812 C 4.015625 59.445312 3.980469 58.253906 3.988281 57.066406 C 3.992188 55.875 4.035156 54.683594 4.113281 53.496094 C 4.195312 52.308594 4.3125 51.125 4.464844 49.945312 C 4.621094 48.761719 4.8125 47.589844 5.039062 46.421875 C 5.265625 45.25 5.53125 44.089844 5.832031 42.9375 C 6.132812 41.785156 6.46875 40.644531 6.839844 39.515625 C 7.214844 38.382812 7.621094 37.265625 8.0625 36.160156 C 8.503906 35.054688 8.984375 33.964844 9.492188 32.890625 C 10.003906 31.8125 10.546875 30.753906 11.125 29.714844 C 11.703125 28.671875 12.3125 27.648438 12.953125 26.648438 C 13.597656 25.644531 14.269531 24.664062 14.972656 23.703125 C 15.675781 22.742188 16.40625 21.804688 17.171875 20.886719 C 17.933594 19.972656 18.722656 19.082031 19.539062 18.21875 C 20.359375 17.351562 21.203125 16.515625 22.074219 15.703125 C 22.945312 14.890625 23.839844 14.105469 24.757812 13.351562 C 25.679688 12.59375 26.621094 11.867188 27.585938 11.171875 C 28.550781 10.472656 29.539062 9.808594 30.546875 9.171875 C 31.554688 8.539062 32.578125 7.933594 33.625 7.363281 C 34.667969 6.792969 35.730469 6.257812 36.808594 5.753906 C 37.890625 5.25 38.984375 4.78125 40.089844 4.34375 C 41.199219 3.910156 42.320312 3.511719 43.453125 3.144531 C 44.585938 2.78125 45.730469 2.453125 46.886719 2.160156 C 48.039062 1.867188 49.199219 1.609375 50.371094 1.390625 C 51.542969 1.167969 52.71875 0.984375 53.898438 0.839844 C 55.082031 0.695312 56.265625 0.585938 57.453125 0.511719 C 58.644531 0.441406 59.832031 0.40625 61.023438 0.410156 Z M 61.023438 0.410156 " fill-opacity="1" fill-rule="nonzero"/></g></g></g><g fill="#cc0000" fill-opacity="1"><g transform="translate(98.943881, 257.448864)"><g><path d="M 8.6875 0.1875 C 6.476562 0.1875 4.660156 -0.335938 3.234375 -1.390625 C 1.816406 -2.441406 1.050781 -3.945312 0.9375 -5.90625 L 6.59375 -5.90625 C 6.644531 -5.238281 6.835938 -4.753906 7.171875 -4.453125 C 7.515625 -4.148438 7.957031 -4 8.5 -4 C 8.988281 -4 9.390625 -4.117188 9.703125 -4.359375 C 10.015625 -4.597656 10.171875 -4.9375 10.171875 -5.375 C 10.171875 -5.925781 9.910156 -6.351562 9.390625 -6.65625 C 8.867188 -6.96875 8.023438 -7.3125 6.859375 -7.6875 C 5.617188 -8.101562 4.613281 -8.503906 3.84375 -8.890625 C 3.082031 -9.285156 2.414062 -9.851562 1.84375 -10.59375 C 1.28125 -11.34375 1 -12.320312 1 -13.53125 C 1 -14.75 1.300781 -15.796875 1.90625 -16.671875 C 2.519531 -17.546875 3.367188 -18.207031 4.453125 -18.65625 C 5.535156 -19.101562 6.757812 -19.328125 8.125 -19.328125 C 10.34375 -19.328125 12.113281 -18.8125 13.4375 -17.78125 C 14.757812 -16.75 15.460938 -15.296875 15.546875 -13.421875 L 9.796875 -13.421875 C 9.785156 -13.992188 9.613281 -14.421875 9.28125 -14.703125 C 8.945312 -14.992188 8.515625 -15.140625 7.984375 -15.140625 C 7.585938 -15.140625 7.265625 -15.019531 7.015625 -14.78125 C 6.765625 -14.550781 6.640625 -14.222656 6.640625 -13.796875 C 6.640625 -13.429688 6.78125 -13.117188 7.0625 -12.859375 C 7.34375 -12.597656 7.6875 -12.375 8.09375 -12.1875 C 8.507812 -12 9.125 -11.757812 9.9375 -11.46875 C 11.144531 -11.0625 12.140625 -10.65625 12.921875 -10.25 C 13.703125 -9.84375 14.375 -9.273438 14.9375 -8.546875 C 15.507812 -7.816406 15.796875 -6.894531 15.796875 -5.78125 C 15.796875 -4.644531 15.507812 -3.625 14.9375 -2.71875 C 14.375 -1.820312 13.554688 -1.113281 12.484375 -0.59375 C 11.410156 -0.0703125 10.144531 0.1875 8.6875 0.1875 Z M 8.6875 0.1875 "/></g></g></g><g fill="#cc0000" fill-opacity="1"><g transform="translate(115.683885, 257.448864)"><g><path d="M 11.15625 0 L 7.375 -7.015625 L 6.796875 -7.015625 L 6.796875 0 L 1.515625 0 L 1.515625 -19.03125 L 9.859375 -19.03125 C 11.390625 -19.03125 12.6875 -18.765625 13.75 -18.234375 C 14.8125 -17.703125 15.609375 -16.972656 16.140625 -16.046875 C 16.679688 -15.117188 16.953125 -14.082031 16.953125 -12.9375 C 16.953125 -11.632812 16.597656 -10.492188 15.890625 -9.515625 C 15.179688 -8.535156 14.140625 -7.835938 12.765625 -7.421875 L 17.0625 0 Z M 6.796875 -10.640625 L 9.421875 -10.640625 C 10.140625 -10.640625 10.675781 -10.804688 11.03125 -11.140625 C 11.394531 -11.484375 11.578125 -11.984375 11.578125 -12.640625 C 11.578125 -13.242188 11.390625 -13.722656 11.015625 -14.078125 C 10.648438 -14.429688 10.117188 -14.609375 9.421875 -14.609375 L 6.796875 -14.609375 Z M 6.796875 -10.640625 "/></g></g></g><g fill="#cc0000" fill-opacity="1"><g transform="translate(133.530888, 257.448864)"><g><path d="M 14.546875 3.1875 L 12.453125 0.03125 C 11.859375 0.132812 11.253906 0.1875 10.640625 0.1875 C 8.859375 0.1875 7.21875 -0.226562 5.71875 -1.0625 C 4.226562 -1.90625 3.046875 -3.066406 2.171875 -4.546875 C 1.296875 -6.035156 0.859375 -7.710938 0.859375 -9.578125 C 0.859375 -11.453125 1.296875 -13.128906 2.171875 -14.609375 C 3.046875 -16.097656 4.226562 -17.253906 5.71875 -18.078125 C 7.21875 -18.910156 8.859375 -19.328125 10.640625 -19.328125 C 12.441406 -19.328125 14.082031 -18.910156 15.5625 -18.078125 C 17.050781 -17.253906 18.226562 -16.097656 19.09375 -14.609375 C 19.957031 -13.128906 20.390625 -11.453125 20.390625 -9.578125 C 20.390625 -8.015625 20.070312 -6.570312 19.4375 -5.25 C 18.8125 -3.925781 17.945312 -2.820312 16.84375 -1.9375 L 20.875 3.1875 Z M 6.265625 -9.578125 C 6.265625 -8.085938 6.648438 -6.90625 7.421875 -6.03125 C 8.203125 -5.15625 9.273438 -4.71875 10.640625 -4.71875 C 11.984375 -4.71875 13.046875 -5.160156 13.828125 -6.046875 C 14.617188 -6.929688 15.015625 -8.109375 15.015625 -9.578125 C 15.015625 -11.097656 14.617188 -12.289062 13.828125 -13.15625 C 13.046875 -14.03125 11.984375 -14.46875 10.640625 -14.46875 C 9.273438 -14.46875 8.203125 -14.03125 7.421875 -13.15625 C 6.648438 -12.289062 6.265625 -11.097656 6.265625 -9.578125 Z M 6.265625 -9.578125 "/></g></g></g><g fill="#cc0000" fill-opacity="1"><g transform="translate(154.806894, 257.448864)"><g/></g></g><g fill="#cc0000" fill-opacity="1"><g transform="translate(159.963899, 257.448864)"><g><path d="M 6.796875 -14.796875 L 6.796875 -11.6875 L 12.875 -11.6875 L 12.875 -7.671875 L 6.796875 -7.671875 L 6.796875 -4.234375 L 13.6875 -4.234375 L 13.6875 0 L 1.515625 0 L 1.515625 -19.03125 L 13.6875 -19.03125 L 13.6875 -14.796875 Z M 6.796875 -14.796875 "/></g></g></g><g fill="#cc0000" fill-opacity="1"><g transform="translate(174.759907, 257.448864)"><g><path d="M 8.6875 0.1875 C 6.476562 0.1875 4.660156 -0.335938 3.234375 -1.390625 C 1.816406 -2.441406 1.050781 -3.945312 0.9375 -5.90625 L 6.59375 -5.90625 C 6.644531 -5.238281 6.835938 -4.753906 7.171875 -4.453125 C 7.515625 -4.148438 7.957031 -4 8.5 -4 C 8.988281 -4 9.390625 -4.117188 9.703125 -4.359375 C 10.015625 -4.597656 10.171875 -4.9375 10.171875 -5.375 C 10.171875 -5.925781 9.910156 -6.351562 9.390625 -6.65625 C 8.867188 -6.96875 8.023438 -7.3125 6.859375 -7.6875 C 5.617188 -8.101562 4.613281 -8.503906 3.84375 -8.890625 C 3.082031 -9.285156 2.414062 -9.851562 1.84375 -10.59375 C 1.28125 -11.34375 1 -12.320312 1 -13.53125 C 1 -14.75 1.300781 -15.796875 1.90625 -16.671875 C 2.519531 -17.546875 3.367188 -18.207031 4.453125 -18.65625 C 5.535156 -19.101562 6.757812 -19.328125 8.125 -19.328125 C 10.34375 -19.328125 12.113281 -18.8125 13.4375 -17.78125 C 14.757812 -16.75 15.460938 -15.296875 15.546875 -13.421875 L 9.796875 -13.421875 C 9.785156 -13.992188 9.613281 -14.421875 9.28125 -14.703125 C 8.945312 -14.992188 8.515625 -15.140625 7.984375 -15.140625 C 7.585938 -15.140625 7.265625 -15.019531 7.015625 -14.78125 C 6.765625 -14.550781 6.640625 -14.222656 6.640625 -13.796875 C 6.640625 -13.429688 6.78125 -13.117188 7.0625 -12.859375 C 7.34375 -12.597656 7.6875 -12.375 8.09375 -12.1875 C 8.507812 -12 9.125 -11.757812 9.9375 -11.46875 C 11.144531 -11.0625 12.140625 -10.65625 12.921875 -10.25 C 13.703125 -9.84375 14.375 -9.273438 14.9375 -8.546875 C 15.507812 -7.816406 15.796875 -6.894531 15.796875 -5.78125 C 15.796875 -4.644531 15.507812 -3.625 14.9375 -2.71875 C 14.375 -1.820312 13.554688 -1.113281 12.484375 -0.59375 C 11.410156 -0.0703125 10.144531 0.1875 8.6875 0.1875 Z M 8.6875 0.1875 "/></g></g></g><g fill="#cc0000" fill-opacity="1"><g transform="translate(191.499912, 257.448864)"><g><path d="M 15.84375 -19.03125 L 15.84375 -14.828125 L 10.765625 -14.828125 L 10.765625 0 L 5.484375 0 L 5.484375 -14.828125 L 0.453125 -14.828125 L 0.453125 -19.03125 Z M 15.84375 -19.03125 "/></g></g></g><g fill="#cc0000" fill-opacity="1"><g transform="translate(207.807913, 257.448864)"><g><path d="M 13.546875 -3.109375 L 6.796875 -3.109375 L 5.78125 0 L 0.21875 0 L 7.15625 -19.03125 L 13.25 -19.03125 L 20.171875 0 L 14.578125 0 Z M 12.234375 -7.15625 L 10.171875 -13.3125 L 8.15625 -7.15625 Z M 12.234375 -7.15625 "/></g></g></g><g fill="#cc0000" fill-opacity="1"><g transform="translate(228.192917, 257.448864)"><g><path d="M 15.84375 -19.03125 L 15.84375 -14.828125 L 10.765625 -14.828125 L 10.765625 0 L 5.484375 0 L 5.484375 -14.828125 L 0.453125 -14.828125 L 0.453125 -19.03125 Z M 15.84375 -19.03125 "/></g></g></g><g fill="#cc0000" fill-opacity="1"><g transform="translate(244.500919, 257.448864)"><g><path d="M 6.796875 -14.796875 L 6.796875 -11.6875 L 12.875 -11.6875 L 12.875 -7.671875 L 6.796875 -7.671875 L 6.796875 -4.234375 L 13.6875 -4.234375 L 13.6875 0 L 1.515625 0 L 1.515625 -19.03125 L 13.6875 -19.03125 L 13.6875 -14.796875 Z M 6.796875 -14.796875 "/></g></g></g><g fill="#cc0000" fill-opacity="1"><g transform="translate(259.296927, 257.448864)"><g><path d="M 8.6875 0.1875 C 6.476562 0.1875 4.660156 -0.335938 3.234375 -1.390625 C 1.816406 -2.441406 1.050781 -3.945312 0.9375 -5.90625 L 6.59375 -5.90625 C 6.644531 -5.238281 6.835938 -4.753906 7.171875 -4.453125 C 7.515625 -4.148438 7.957031 -4 8.5 -4 C 8.988281 -4 9.390625 -4.117188 9.703125 -4.359375 C 10.015625 -4.597656 10.171875 -4.9375 10.171875 -5.375 C 10.171875 -5.925781 9.910156 -6.351562 9.390625 -6.65625 C 8.867188 -6.96875 8.023438 -7.3125 6.859375 -7.6875 C 5.617188 -8.101562 4.613281 -8.503906 3.84375 -8.890625 C 3.082031 -9.285156 2.414062 -9.851562 1.84375 -10.59375 C 1.28125 -11.34375 1 -12.320312 1 -13.53125 C 1 -14.75 1.300781 -15.796875 1.90625 -16.671875 C 2.519531 -17.546875 3.367188 -18.207031 4.453125 -18.65625 C 5.535156 -19.101562 6.757812 -19.328125 8.125 -19.328125 C 10.34375 -19.328125 12.113281 -18.8125 13.4375 -17.78125 C 14.757812 -16.75 15.460938 -15.296875 15.546875 -13.421875 L 9.796875 -13.421875 C 9.785156 -13.992188 9.613281 -14.421875 9.28125 -14.703125 C 8.945312 -14.992188 8.515625 -15.140625 7.984375 -15.140625 C 7.585938 -15.140625 7.265625 -15.019531 7.015625 -14.78125 C 6.765625 -14.550781 6.640625 -14.222656 6.640625 -13.796875 C 6.640625 -13.429688 6.78125 -13.117188 7.0625 -12.859375 C 7.34375 -12.597656 7.6875 -12.375 8.09375 -12.1875 C 8.507812 -12 9.125 -11.757812 9.9375 -11.46875 C 11.144531 -11.0625 12.140625 -10.65625 12.921875 -10.25 C 13.703125 -9.84375 14.375 -9.273438 14.9375 -8.546875 C 15.507812 -7.816406 15.796875 -6.894531 15.796875 -5.78125 C 15.796875 -4.644531 15.507812 -3.625 14.9375 -2.71875 C 14.375 -1.820312 13.554688 -1.113281 12.484375 -0.59375 C 11.410156 -0.0703125 10.144531 0.1875 8.6875 0.1875 Z M 8.6875 0.1875 "/></g></g></g></svg>